<?xml version="1.0" encoding="utf-8"?>
<!-- Generator: Adobe Illustrator 17.0.0, SVG Export Plug-In . SVG Version: 6.00 Build 0)  -->
<!DOCTYPE svg PUBLIC "-//W3C//DTD SVG 1.1//EN" "http://www.w3.org/Graphics/SVG/1.1/DTD/svg11.dtd">
<svg version="1.1" id="Layer_2" xmlns="http://www.w3.org/2000/svg" xmlns:xlink="http://www.w3.org/1999/xlink" x="0px" y="0px"
	 width="50px" height="50px" viewBox="0 0 50 50" enable-background="new 0 0 50 50" xml:space="preserve">
<g>
	<circle fill="none" stroke="#FFFFFF" stroke-width="3" stroke-miterlimit="10" cx="25" cy="24.881" r="22.417"/>
	<g>
		<path fill="#FFFFFF" d="M27.864,13.063c0,0-5.261,0-7.062,0c-3.23,0-6.272,2.339-6.272,5.262c0,2.987,2.202,5.31,5.488,5.31
			c0.229,0,0.451-0.053,0.67-0.07c-0.216,0.42-0.364,0.871-0.364,1.364c0,0.83,0.431,1.494,0.978,2.043
			c-0.41,0-0.812,0.006-1.248,0.006c-4.002,0.002-7.083,2.628-7.083,5.354c0,2.685,3.378,4.367,7.379,4.367
			c4.564,0,7.083-2.672,7.083-5.357c0-2.152-0.617-3.443-2.519-4.834c-0.652-0.475-1.897-1.631-1.897-2.312
			c0-0.796,0.22-1.189,1.384-2.127c1.191-0.96,2.035-2.105,2.035-3.676c0-1.869-0.779-4.148-2.295-4.148h2.577L27.864,13.063z
			 M25.494,30.877c0.055,0.251,0.088,0.508,0.088,0.768c0,2.17-1.358,3.866-5.247,3.866c-2.767,0-4.764-1.806-4.764-3.976
			c0-2.126,2.478-3.897,5.245-3.866c0.644,0.008,1.247,0.114,1.792,0.294C24.112,29.041,25.188,29.651,25.494,30.877z
			 M21.062,22.783c-1.857-0.055-3.622-2.143-3.942-4.655c-0.319-2.517,0.926-4.442,2.782-4.386c1.856,0.06,3.622,2.077,3.942,4.593
			C24.165,20.849,22.919,22.84,21.062,22.783z"/>
		<polygon fill="#FFFFFF" points="33.593,22.509 33.593,18.964 31.301,18.964 31.301,22.509 27.864,22.509 27.864,24.873 
			31.301,24.873 31.301,28.418 33.593,28.418 33.593,24.873 37.029,24.873 37.029,22.509 		"/>
	</g>
</g>
</svg>
