<?xml version="1.0" encoding="utf-8"?>
<!-- Generator: Adobe Illustrator 17.0.0, SVG Export Plug-In . SVG Version: 6.00 Build 0)  -->
<!DOCTYPE svg PUBLIC "-//W3C//DTD SVG 1.1//EN" "http://www.w3.org/Graphics/SVG/1.1/DTD/svg11.dtd">
<svg version="1.1" id="Layer_2" xmlns="http://www.w3.org/2000/svg" xmlns:xlink="http://www.w3.org/1999/xlink" x="0px" y="0px"
	 width="50px" height="50px" viewBox="0 0 50 50" enable-background="new 0 0 50 50" xml:space="preserve">
<g>
	<circle fill="none" stroke="#FFFFFF" stroke-width="3" stroke-miterlimit="10" cx="25" cy="24.881" r="22.417"/>
	<path id="Oval-1" fill="#FFFFFF" d="M14,20v14.54h4.71V20H14z M16.665,12.881c-1.611,0-2.665,1.086-2.665,2.512
		c0,1.396,1.022,2.513,2.604,2.513h0.03c1.642,0,2.665-1.117,2.665-2.513C19.268,13.967,18.276,12.881,16.665,12.881z M30.577,20
		c-2.501,0-3.62,1.411-4.246,2.401v-2.059h-4.711c0.062,1.364,0,14.54,0,14.54h4.711v-8.12c0-0.435,0.031-0.868,0.155-1.179
		c0.34-0.868,1.115-1.767,2.417-1.767c1.705,0,2.387,1.333,2.387,3.287v7.779H36l0-8.337C36,22.078,33.676,20,30.577,20z"/>
</g>
</svg>
