<?xml version="1.0" encoding="utf-8"?>
<!-- Generator: Adobe Illustrator 17.0.0, SVG Export Plug-In . SVG Version: 6.00 Build 0)  -->
<!DOCTYPE svg PUBLIC "-//W3C//DTD SVG 1.1//EN" "http://www.w3.org/Graphics/SVG/1.1/DTD/svg11.dtd">
<svg version="1.1" id="Layer_2" xmlns="http://www.w3.org/2000/svg" xmlns:xlink="http://www.w3.org/1999/xlink" x="0px" y="0px"
	 width="50px" height="50px" viewBox="0 0 50 50" enable-background="new 0 0 50 50" xml:space="preserve">
<g>
	<circle fill="none" stroke="#FFFFFF" stroke-width="3" stroke-miterlimit="10" cx="25" cy="24.881" r="22.417"/>
	<path id="Oval-1" fill="#FFFFFF" d="M24.655,20.048l0.052,0.893l-0.864-0.109c-3.145-0.419-5.893-1.842-8.226-4.23l-1.141-1.185
		l-0.294,0.875c-0.622,1.951-0.225,4.011,1.071,5.397c0.691,0.766,0.536,0.875-0.657,0.419c-0.415-0.146-0.778-0.255-0.812-0.201
		c-0.121,0.128,0.294,1.787,0.622,2.443c0.449,0.912,1.365,1.805,2.368,2.334l0.847,0.419l-1.002,0.018
		c-0.968,0-1.002,0.018-0.899,0.401c0.346,1.185,1.711,2.443,3.232,2.99l1.071,0.383l-0.933,0.583
		c-1.383,0.839-3.007,1.313-4.632,1.349c-0.778,0.018-1.417,0.091-1.417,0.146c0,0.182,2.108,1.203,3.335,1.605
		c3.681,1.185,8.053,0.675,11.337-1.349c2.333-1.44,4.666-4.303,5.755-7.075c0.588-1.477,1.175-4.176,1.175-5.47
		c0-0.839,0.052-0.948,1.02-1.951c0.57-0.583,1.106-1.222,1.21-1.404c0.173-0.346,0.156-0.346-0.726-0.036
		c-1.469,0.547-1.676,0.474-0.951-0.346c0.536-0.583,1.175-1.641,1.175-1.951c0-0.055-0.259,0.036-0.553,0.201
		c-0.311,0.182-1.002,0.456-1.521,0.62l-0.933,0.31l-0.847-0.602c-0.467-0.328-1.123-0.693-1.469-0.802
		c-0.881-0.255-2.229-0.219-3.024,0.073C25.864,15.617,24.499,17.733,24.655,20.048C24.655,20.048,24.499,17.733,24.655,20.048z"/>
</g>
</svg>
