<?xml version="1.0" encoding="utf-8"?>
<!-- Generator: Adobe Illustrator 17.0.0, SVG Export Plug-In . SVG Version: 6.00 Build 0)  -->
<!DOCTYPE svg PUBLIC "-//W3C//DTD SVG 1.1//EN" "http://www.w3.org/Graphics/SVG/1.1/DTD/svg11.dtd">
<svg version="1.1" id="Layer_2" xmlns="http://www.w3.org/2000/svg" xmlns:xlink="http://www.w3.org/1999/xlink" x="0px" y="0px"
	 width="50px" height="50px" viewBox="0 0 50 50" enable-background="new 0 0 50 50" xml:space="preserve">
<g>
	<g>
		<path fill="#FFFFFF" d="M33.18,30.953c-0.206,0-0.356,0.059-0.447,0.181c-0.091,0.116-0.134,0.315-0.134,0.593v0.666h1.148v-0.666
			c0-0.276-0.046-0.475-0.138-0.593C33.524,31.009,33.377,30.953,33.18,30.953z"/>
		<path fill="#FFFFFF" d="M28.703,30.929c-0.093,0-0.185,0.019-0.274,0.064c-0.091,0.043-0.18,0.111-0.267,0.202v4.114
			c0.105,0.105,0.208,0.185,0.309,0.231c0.099,0.046,0.203,0.071,0.313,0.071c0.159,0,0.274-0.046,0.35-0.139
			c0.074-0.092,0.114-0.242,0.114-0.454v-3.41c0-0.223-0.046-0.393-0.138-0.507C29.014,30.985,28.877,30.929,28.703,30.929z"/>
		<path fill="#FFFFFF" d="M35.917,25.81c-1.067-1.065-10.054-1.079-10.054-1.079s-8.986,0.013-10.055,1.077
			c-1.068,1.068-1.071,6.336-1.071,6.365c0,0.04,0.001,5.297,1.071,6.365c1.068,1.065,10.055,1.088,10.055,1.088
			s8.987-0.022,10.054-1.088c1.073-1.07,1.083-6.365,1.083-6.365C37.001,32.144,36.99,26.878,35.917,25.81z M21.592,28.914h-1.513
			v7.652h-1.464v-7.652h-1.513v-1.3h4.491V28.914z M25.869,36.564h-1.295v-0.727c-0.242,0.269-0.49,0.473-0.751,0.611
			c-0.26,0.141-0.51,0.209-0.755,0.209c-0.303,0-0.525-0.095-0.678-0.294c-0.15-0.197-0.227-0.49-0.227-0.884v-5.521h1.297v5.066
			c0,0.157,0.027,0.269,0.08,0.34c0.058,0.07,0.147,0.105,0.267,0.105c0.095,0,0.218-0.046,0.362-0.139
			c0.147-0.092,0.277-0.209,0.404-0.353V29.96h1.297V36.564z M30.582,35.199c0,0.467-0.102,0.825-0.306,1.074
			c-0.202,0.249-0.497,0.372-0.883,0.372c-0.255,0-0.481-0.046-0.678-0.142c-0.199-0.095-0.386-0.243-0.555-0.447v0.507h-1.312
			v-8.951h1.312v2.881c0.177-0.2,0.361-0.356,0.556-0.46c0.199-0.105,0.398-0.157,0.599-0.157c0.411,0,0.726,0.139,0.941,0.42
			c0.22,0.282,0.326,0.694,0.326,1.234v3.668L30.582,35.199L30.582,35.199z M35.084,33.423H32.6v1.242
			c0,0.349,0.043,0.589,0.128,0.726c0.088,0.135,0.231,0.2,0.441,0.2c0.215,0,0.365-0.058,0.451-0.171
			c0.085-0.114,0.131-0.364,0.131-0.754v-0.303h1.335v0.338c0,0.677-0.162,1.187-0.488,1.533c-0.325,0.341-0.81,0.512-1.456,0.512
			c-0.58,0-1.04-0.18-1.374-0.543c-0.334-0.361-0.503-0.861-0.503-1.497v-2.965c0-0.571,0.185-1.04,0.552-1.401
			c0.366-0.361,0.84-0.54,1.421-0.54c0.595,0,1.05,0.166,1.371,0.5c0.319,0.334,0.476,0.812,0.476,1.441v1.683h-0.001V33.423z"/>
		<path fill="#FFFFFF" d="M33.174,21.961h-1.463v-0.803c-0.267,0.295-0.548,0.522-0.841,0.675c-0.291,0.154-0.574,0.231-0.847,0.231
			c-0.34,0-0.593-0.108-0.764-0.326c-0.171-0.217-0.255-0.54-0.255-0.976v-6.076h1.46v5.577c0,0.172,0.033,0.297,0.093,0.374
			c0.059,0.077,0.16,0.116,0.297,0.116c0.107,0,0.243-0.05,0.407-0.153c0.163-0.102,0.315-0.231,0.45-0.393v-5.521h1.463
			L33.174,21.961L33.174,21.961z"/>
		<path fill="#FFFFFF" d="M27.24,15.031c-0.387-0.353-0.884-0.53-1.488-0.53c-0.663,0-1.194,0.166-1.586,0.5
			c-0.395,0.334-0.592,0.782-0.592,1.346v3.77c0,0.619,0.193,1.11,0.574,1.475c0.384,0.364,0.896,0.548,1.536,0.548
			c0.665,0,1.184-0.177,1.567-0.531c0.377-0.355,0.567-0.843,0.567-1.464v-3.751C27.816,15.838,27.623,15.384,27.24,15.031z
			 M26.328,20.258c0,0.194-0.059,0.347-0.175,0.46c-0.117,0.11-0.273,0.165-0.472,0.165c-0.194,0-0.343-0.053-0.447-0.162
			c-0.104-0.111-0.157-0.264-0.157-0.463v-3.963c0-0.159,0.058-0.288,0.166-0.386c0.113-0.096,0.255-0.147,0.436-0.147
			c0.193,0,0.349,0.047,0.467,0.147c0.119,0.098,0.18,0.227,0.18,0.386v3.963H26.328z"/>
		<polygon fill="#FFFFFF" points="19.592,12.1 17.934,12.1 19.894,18.055 19.894,21.961 21.538,21.961 21.538,17.871 23.455,12.1 
			21.78,12.1 20.765,16.043 20.662,16.043 		"/>
	</g>
	<circle fill="none" stroke="#FFFFFF" stroke-width="3" stroke-miterlimit="10" cx="25.869" cy="25.864" r="22.417"/>
</g>
</svg>
